<?xml version="1.0" encoding="UTF-8" standalone="no"?>
<svg
   version="1.1"
   id="圖層_1"
   x="0px"
   y="0px"
   viewBox="0 0 210.15901 251.9187"
   xml:space="preserve"
   width="300"
   height="298.8866"
   sodipodi:docname="svgexport-3.svg"
   inkscape:version="1.1.1 (3bf5ae0d25, 2021-09-20)"
   xmlns:inkscape="http://www.inkscape.org/namespaces/inkscape"
   xmlns:sodipodi="http://sodipodi.sourceforge.net/DTD/sodipodi-0.dtd"
   xmlns="http://www.w3.org/2000/svg"
   xmlns:svg="http://www.w3.org/2000/svg"><defs
   id="defs149" /><sodipodi:namedview
   id="namedview147"
   pagecolor="#505050"
   bordercolor="#ffffff"
   borderopacity="1"
   inkscape:pageshadow="0"
   inkscape:pageopacity="0"
   inkscape:pagecheckerboard="1"
   showgrid="false"
   fit-margin-top="0"
   fit-margin-left="0"
   fit-margin-right="0"
   fit-margin-bottom="0"
   inkscape:zoom="3.6063954"
   inkscape:cx="-22.737385"
   inkscape:cy="147.793"
   inkscape:window-width="3440"
   inkscape:window-height="1411"
   inkscape:window-x="1431"
   inkscape:window-y="-9"
   inkscape:window-maximized="1"
   inkscape:current-layer="圖層_1" />
<style
   type="text/css"
   id="style80">
	.st0{fill:#00416C;}
	.st1{fill-rule:evenodd;clip-rule:evenodd;fill:#00416C;}
</style>
<g
   id="Group_280"
   transform="matrix(0.63727193,0,0,0.63727193,-612.0426,-1058.5087)">
	<g
   id="Group_279"
   transform="translate(927,1661)">
		<g
   id="Group_274">
			<path
   id="Path_867"
   class="st0"
   d="m 218.6,21.5 v -9.7 c -4.4,-0.5 -9.3,-0.8 -14.8,-0.9 h -0.4 V 0 h -10.8 v 10.9 h -0.4 c -5.5,0.2 -10.4,0.5 -14.8,0.9 v 9.7 c 4.4,-0.5 9.3,-0.8 14.8,-0.9 h 0.4 v 31.2 h 10.8 V 20.6 h 0.4 c 5.6,0.2 10.5,0.5 14.8,0.9 z" />
			<g
   id="Group_273"
   transform="translate(0,22.408)">
				<path
   id="Path_868"
   class="st1"
   d="m 98.6,21.6 c 0.3,0.1 0.7,0.1 1,0.1 C 109.4,20.2 124.7,10 130.9,2.1 131,1.9 131.1,1.8 131.2,1.6 131.4,0.9 131,0.2 130.3,0 v 0 c -13.4,0 -29.4,8.4 -33.9,16.9 -0.1,0.2 -0.2,0.4 -0.3,0.6 -0.5,1.9 0.6,3.7 2.5,4.1 z" />
				<path
   id="Path_869"
   class="st1"
   d="m 37.9,80.2 c 0.4,0 0.8,-0.1 1.2,-0.2 h 0.1 c 0.4,-0.2 0.8,-0.4 1.1,-0.7 9.1,-12 12.1,-26.4 13,-40.7 0,-0.7 -0.6,-1.3 -1.3,-1.3 -0.1,0 -0.1,0 -0.2,0 -0.3,0 -0.5,0.2 -0.7,0.4 -1.8,1.8 -3.7,3.9 -5.2,5.7 C 38.7,52 34,61.5 34,72.9 c 0,1.6 0.2,3.2 0.6,4.8 0.4,1.5 1.8,2.5 3.3,2.5 z" />
				<path
   id="Path_870"
   class="st1"
   d="m 12.4,171.7 c 0.6,0.4 1.2,0.6 1.9,0.6 0.4,0 0.8,-0.1 1.2,-0.2 h 0.1 c 1.2,-0.5 2,-1.6 2.2,-2.8 1.5,-12.9 -5.1,-38.9 -12.4,-46.1 -0.3,-0.2 -0.6,-0.4 -0.9,-0.4 -0.1,0 -0.2,0 -0.2,0 -0.5,0.1 -0.9,0.4 -1,0.8 -3.2,13.6 -3.2,26.9 2.7,39.9 1.5,3.2 3.7,6 6.4,8.2 z" />
				<path
   id="Path_871"
   class="st1"
   d="m 78.6,62.6 c 0.1,-0.1 0.1,-0.3 0.1,-0.4 v -0.1 c 0,-0.7 -0.5,-1.3 -1.1,-1.4 C 63.4,60.5 47.8,71.8 44,82.1 c -0.1,0.3 -0.2,0.7 -0.2,1 0,0.3 0,0.6 0.1,0.9 0.4,1.6 1.8,2.7 3.5,2.7 0.3,0 0.5,0 0.8,-0.1 10.2,-2.7 25.4,-14.4 30.4,-24 z" />
				<path
   id="Path_872"
   class="st1"
   d="m 63.6,41.8 c 0.4,0.1 0.7,0.2 1.1,0.2 h 0.1 C 65.2,42 65.6,41.9 66,41.7 77.7,33.5 84.5,21.4 89.5,8.8 89.7,8.2 89.3,7.5 88.7,7.3 c -0.1,0 -0.1,0 -0.2,-0.1 -0.3,0 -0.5,0 -0.8,0.1 -2.1,1.1 -4.5,2.4 -6.3,3.6 -8.8,5.7 -15.9,13 -19.2,23.3 -0.5,1.4 -0.8,2.9 -0.8,4.5 -0.1,1.4 0.8,2.7 2.2,3.1 z" />
				<path
   id="Path_873"
   class="st1"
   d="m 104.7,30.9 c 0.1,-0.1 0.1,-0.3 0.2,-0.4 V 30.4 C 105,29.8 104.6,29.2 104,29 90.6,27.5 75,36.9 70.5,46.3 c -0.1,0.3 -0.2,0.6 -0.2,0.9 0,0.3 0,0.6 0,0.9 0.3,1.5 1.5,2.7 3,2.8 0.2,0 0.5,0 0.7,-0.1 9.8,-1.5 25.1,-11.2 30.7,-19.9 z" />
				<path
   id="Path_874"
   class="st1"
   d="m 31.2,129.8 c 0.4,0 0.7,-0.1 1.1,-0.2 10.2,-4.8 21.3,-20.4 25.4,-31.5 0,-0.1 0,-0.2 0.1,-0.3 v -0.1 c 0,-0.1 0,-0.2 0,-0.3 -0.2,-0.5 -0.7,-0.9 -1.2,-0.9 -11.5,0.3 -27.1,16.8 -29,29.6 0,0.1 0,0.2 0,0.4 0,0.3 0.1,0.6 0.2,0.9 0.1,0.3 0.2,0.5 0.4,0.8 0.4,0.9 1.6,1.6 3,1.6 z" />
				<path
   id="Path_875"
   class="st1"
   d="m 16.8,122.7 c 0.7,1 1.9,1.5 3.1,1.5 0.4,0 0.8,-0.1 1.2,-0.3 h 0.1 c 0.6,-0.3 1.1,-0.7 1.5,-1.3 0.1,-0.1 0.1,-0.2 0.2,-0.3 5.1,-10.8 6.5,-32.4 2.4,-44.5 -0.2,-0.6 -0.8,-1 -1.4,-1 -0.1,0 -0.2,0 -0.2,0 -0.3,0.1 -0.6,0.2 -0.8,0.4 -0.1,0.1 -0.1,0.1 -0.1,0.2 -1.3,2.3 -2.6,4.4 -3.6,6.5 -4.9,10.2 -7.4,20.9 -4.9,32.2 0.5,2.3 1.3,4.5 2.5,6.6 z" />
				<path
   id="Path_876"
   class="st1"
   d="m 23.4,170.9 c 0.2,0.7 0.6,1.2 1.1,1.7 0.6,0.5 1.4,0.8 2.3,0.8 0.4,0 0.8,-0.1 1.2,-0.2 h 0.1 c 0.3,-0.1 0.7,-0.3 0.9,-0.6 9.2,-7.5 16.4,-27.2 17.3,-37.6 0,-0.4 -0.1,-0.7 -0.4,-0.9 -0.3,-0.3 -0.6,-0.4 -1,-0.4 v 0 C 32.2,137.5 21,157.6 23.4,170.9 Z" />
				<path
   id="Path_877"
   class="st1"
   d="m 14.9,216.6 c 1.2,1.2 2.5,2.2 4,3 0.5,0.2 1.1,0.4 1.7,0.4 0.5,0 0.9,-0.1 1.4,-0.2 0.6,-0.2 1.2,-0.6 1.7,-1.1 0.2,-0.2 0.4,-0.5 0.5,-0.8 0.2,-0.3 0.3,-0.6 0.4,-0.9 0.1,-0.3 0.1,-0.7 0.1,-1.1 C 23.3,202 11.5,181.5 2.8,173.2 2.6,173 2.3,172.8 1.9,172.8 c -0.1,0 -0.2,0 -0.3,0 -0.1,0 -0.2,0 -0.3,0.1 -0.5,0.1 -0.8,0.4 -1.1,0.8 -0.1,0.1 -0.1,0.2 -0.2,0.4 -0.6,11.2 1.8,22.3 6.9,32.3 2.2,3.7 4.9,7.2 8,10.2 z" />
				<path
   id="Path_878"
   class="st1"
   d="m 106.1,328 c 0.6,-0.2 1.1,-0.6 1.5,-1.1 0.8,-0.9 1.2,-2 1.2,-3.1 0,-1.2 -0.5,-2.3 -1.3,-3.1 -0.2,-0.2 -0.4,-0.3 -0.6,-0.5 -12.3,-8.5 -35.4,-13.4 -48.3,-12.2 -0.5,0.1 -0.9,0.4 -1.1,0.8 -0.1,0.2 -0.2,0.4 -0.3,0.6 -0.1,0.2 -0.1,0.4 -0.1,0.6 0,0.2 0.1,0.4 0.1,0.5 0,0.1 0.1,0.2 0.1,0.3 0.1,0.1 0.1,0.2 0.2,0.3 7.2,7 15.7,12.3 25.1,15.6 6.1,2.2 12.4,3.4 18.9,2.3 1.7,-0.1 3.2,-0.5 4.6,-1 z" />
				<path
   id="Path_879"
   class="st1"
   d="m 39.5,263 c 0.4,0 0.8,-0.1 1.2,-0.2 0.6,-0.2 1.2,-0.6 1.6,-1.1 0.2,-0.2 0.4,-0.5 0.5,-0.8 0.3,-0.6 0.5,-1.3 0.5,-2 0,-0.1 0,-0.3 0,-0.4 0,-0.3 -0.1,-0.6 -0.3,-0.9 -7.6,-15.3 -20,-25.2 -34.1,-33.8 -0.1,-0.1 -0.3,-0.2 -0.5,-0.2 -0.1,0 -0.2,0 -0.3,0 -0.1,0 -0.2,0 -0.3,0.1 -0.5,0.1 -0.9,0.4 -1.1,0.8 -0.1,0.1 -0.1,0.3 -0.1,0.4 0,0.1 0,0.1 0,0.2 0,0.1 0,0.1 0,0.2 v 0.1 c 3.8,13.8 10.8,25.5 22.8,33.9 3,2 6.5,3.3 10.1,3.7 z" />
				<path
   id="Path_880"
   class="st1"
   d="m 31.5,217.5 c 0.2,0.3 0.5,0.5 0.8,0.8 0.1,0.1 0.3,0.2 0.4,0.3 0.6,0.3 1.3,0.5 2,0.5 0.5,0 0.9,-0.1 1.4,-0.3 0.6,-0.2 1.2,-0.6 1.7,-1.1 v -0.1 c 7,-9.4 9.2,-29.9 7.6,-42 0,-0.2 -0.1,-0.5 -0.2,-0.7 -0.1,-0.1 -0.2,-0.3 -0.3,-0.4 -0.3,-0.2 -0.6,-0.4 -0.9,-0.4 -0.1,0 -0.2,0 -0.3,0 -0.1,0 -0.2,0 -0.3,0 -0.2,0.1 -0.3,0.1 -0.4,0.2 -13.4,11.2 -16.7,31.7 -12,42.5 0.2,0.2 0.3,0.5 0.5,0.7 z" />
				<path
   id="Path_881"
   class="st1"
   d="m 66.7,297.6 c 0.2,0 0.4,-0.1 0.7,-0.2 0.6,-0.2 1.2,-0.6 1.6,-1.1 0.2,-0.2 0.4,-0.5 0.5,-0.8 0.2,-0.3 0.3,-0.6 0.4,-0.9 0.1,-0.4 0.1,-0.7 0.1,-1.1 0,-0.1 0,-0.3 0,-0.4 0,-0.5 -0.2,-0.9 -0.4,-1.3 -0.1,-0.2 -0.3,-0.5 -0.4,-0.7 -9.5,-10.5 -31.3,-22.1 -43.3,-22.8 -0.1,0 -0.1,0 -0.2,0 -0.1,0 -0.2,0 -0.3,0 -0.5,0.1 -0.8,0.4 -1.1,0.8 -0.1,0.1 -0.1,0.3 -0.2,0.4 0,0.1 0,0.1 0,0.2 0,0.1 0,0.1 0,0.2 v 0.2 c 0,0.1 0,0.3 0.1,0.4 0,0.1 0.1,0.2 0.1,0.2 6.4,11.9 24.1,26.8 38,27.1 1.6,0 3,0 4.4,-0.2 z" />
				<path
   id="Path_882"
   class="st1"
   d="m 49.3,258.9 c 0.1,0.2 0.2,0.4 0.4,0.6 0.2,0.3 0.5,0.5 0.8,0.7 0.1,0.1 0.3,0.2 0.4,0.3 0.4,0.2 0.9,0.4 1.3,0.4 0.2,0 0.4,0 0.6,0 0.5,0 0.9,-0.1 1.4,-0.2 0.6,-0.2 1.2,-0.6 1.6,-1.1 0.2,-0.2 0.4,-0.5 0.5,-0.8 0,-0.1 0.1,-0.2 0.1,-0.2 0.9,-2.2 1.6,-4.5 2.1,-6.8 1.7,-9.2 0.5,-18.3 -1.3,-27.3 -0.4,-2.1 -1,-4.2 -1.6,-6.6 v 0 c 0,-0.2 -0.1,-0.3 -0.2,-0.4 -0.1,-0.1 -0.2,-0.3 -0.3,-0.4 -0.1,-0.1 -0.2,-0.1 -0.3,-0.2 -0.2,-0.1 -0.4,-0.2 -0.7,-0.2 -0.1,0 -0.2,0 -0.3,0 -0.1,0 -0.2,0 -0.3,0.1 -0.3,0.1 -0.7,0.3 -0.9,0.6 -0.1,0.1 -0.2,0.2 -0.3,0.4 -6.8,9.6 -9.5,20.2 -7.1,31.7 1.1,3.2 2.4,6.4 4.1,9.4 z" />
				<path
   id="Path_883"
   class="st1"
   d="m 78.3,293.6 c 0.1,0.1 0.2,0.1 0.3,0.2 0.4,0.2 0.9,0.4 1.3,0.4 0.2,0 0.4,0 0.6,0 0.1,0 0.3,0 0.4,0 0.3,0 0.6,-0.1 0.9,-0.2 0.6,-0.2 1.2,-0.6 1.6,-1.1 0.2,-0.2 0.4,-0.5 0.5,-0.8 0.1,-0.2 0.2,-0.5 0.3,-0.7 2.3,-11.2 -3.7,-30 -10.7,-41 -0.1,-0.1 -0.1,-0.2 -0.2,-0.3 -0.1,-0.1 -0.2,-0.1 -0.3,-0.2 -0.2,-0.1 -0.4,-0.2 -0.7,-0.2 h -0.1 -0.3 c -0.1,0 -0.2,0 -0.3,0.1 -0.4,0.1 -0.7,0.4 -1,0.7 -6.5,12.4 -4,32.9 7.7,43.1 z" />
				<path
   id="Path_884"
   class="st1"
   d="m 112.8,318.7 c 0.6,0.3 1.3,0.5 2,0.5 0.1,0 0.2,0 0.3,0 0.4,0 0.8,-0.1 1.2,-0.3 0.7,-0.3 1.3,-0.7 1.8,-1.2 0.2,-0.3 0.4,-0.6 0.6,-0.9 0.4,-0.7 0.6,-1.4 0.6,-2.2 -1.4,-14.9 -10.1,-26.3 -19.5,-37.7 -0.2,-0.2 -0.4,-0.4 -0.6,-0.5 -0.2,-0.1 -0.4,-0.2 -0.7,-0.2 h -0.2 c -0.1,0 -0.1,0 -0.2,0 -0.1,0 -0.2,0 -0.3,0.1 -0.5,0.1 -0.9,0.4 -1.1,0.8 -0.1,0.2 -0.2,0.3 -0.2,0.5 -3.9,13.3 4.8,34.2 16.3,41.1 z" />
				<path
   id="Path_885"
   class="st1"
   d="m 150.3,339 c -0.3,-0.2 -0.7,-0.4 -1.1,-0.6 -14,-4.8 -37.4,-3.4 -49.5,1.2 -0.3,0.1 -0.6,0.3 -0.9,0.6 -0.1,0.2 -0.2,0.4 -0.3,0.6 0,0.1 0,0.2 0,0.2 0,0.1 0,0.3 0,0.4 0,0.2 0,0.4 0.1,0.5 0,0.1 0.1,0.2 0.1,0.3 0.1,0.1 0.2,0.3 0.3,0.4 0.1,0.1 0.2,0.2 0.3,0.2 8.8,4.8 18.4,7.6 28.4,8.3 6.5,0.5 12.9,0 18.9,-2.8 1.4,-0.6 2.7,-1.4 3.9,-2.2 0.1,-0.1 0.3,-0.3 0.5,-0.4 0.2,-0.3 0.4,-0.6 0.6,-0.9 0.4,-0.7 0.6,-1.5 0.6,-2.2 0,-1.2 -0.5,-2.3 -1.3,-3.1 -0.2,-0.2 -0.4,-0.4 -0.6,-0.5 z" />
				<path
   id="Path_886"
   class="st1"
   d="m 240.8,336.7 c 14,-1.2 29.3,-23.8 27.1,-39.4 v -0.1 c -0.1,-0.2 -0.2,-0.4 -0.3,-0.6 -0.3,-0.4 -0.7,-0.7 -1.1,-0.8 -0.1,0 -0.2,0 -0.3,0 -0.1,0 -0.1,0 -0.2,0 h -0.2 c -0.2,0 -0.5,0.1 -0.7,0.2 -0.1,0.1 -0.3,0.2 -0.4,0.2 -11.7,10.5 -22.9,21 -25.8,37.2 -8.9,2.3 -24.9,6.7 -40.7,12.4 -15.8,-5.7 -31.8,-10.1 -40.7,-12.4 -2.9,-16.2 -14.1,-26.7 -25.8,-37.2 -0.1,-0.1 -0.2,-0.2 -0.3,-0.2 -0.2,-0.1 -0.4,-0.2 -0.7,-0.2 h -0.2 c -0.1,0 -0.1,0 -0.2,0 -0.1,0 -0.2,0 -0.3,0 -0.5,0.1 -0.9,0.4 -1.1,0.8 -0.1,0.2 -0.2,0.4 -0.3,0.6 v 0.1 c -2.2,15.7 13.1,38.2 27.1,39.4 9.6,2 22.6,6.4 35.3,11.8 -13.8,5.4 -26.6,11.8 -33.4,18.5 l 5,5.9 c 6.2,-6.2 20.2,-14.1 35.6,-21.1 15.3,7 29.4,15 35.6,21.1 l 5,-5.9 c -6.7,-6.7 -19.5,-13 -33.4,-18.5 12.8,-5.4 25.7,-9.8 35.4,-11.8 z" />
				<path
   id="Path_887"
   class="st1"
   d="m 265.6,2.1 c 6.2,7.9 21.5,18.1 31.3,19.6 0.3,0 0.7,0 1,-0.1 1.8,-0.4 3,-2.3 2.5,-4.1 v 0 c -0.1,-0.2 -0.2,-0.4 -0.3,-0.6 C 295.7,8.4 279.8,0 266.3,0 c -0.7,0.2 -1.1,0.9 -1,1.6 v 0 c 0.1,0.2 0.2,0.3 0.3,0.5 z" />
				<path
   id="Path_888"
   class="st1"
   d="m 357.3,79.9 h 0.1 c 1.8,0.6 3.8,-0.3 4.4,-2.2 v -0.1 c 0.4,-1.6 0.6,-3.2 0.6,-4.8 0,-11.4 -4.7,-21 -11.7,-29.6 -1.4,-1.8 -3.4,-3.9 -5.2,-5.7 -0.2,-0.2 -0.5,-0.3 -0.7,-0.4 -0.1,0 -0.1,0 -0.2,0 -0.7,0 -1.3,0.6 -1.3,1.3 0.9,14.3 3.8,28.7 13,40.7 0.3,0.4 0.6,0.7 1,0.8 z" />
				<path
   id="Path_889"
   class="st1"
   d="m 378.6,169.2 c 0.2,1.3 1,2.4 2.2,2.8 h 0.1 c 0.4,0.1 0.8,0.2 1.2,0.2 0.7,0 1.4,-0.2 1.9,-0.6 2.7,-2.2 4.9,-5 6.4,-8.2 5.9,-13 5.9,-26.3 2.7,-39.9 -0.1,-0.2 -0.1,-0.3 -0.3,-0.4 -0.2,-0.2 -0.5,-0.3 -0.8,-0.4 -0.1,0 -0.2,0 -0.2,0 -0.3,0 -0.7,0.1 -0.9,0.4 -7.1,7.2 -13.8,33.2 -12.3,46.1 z" />
				<path
   id="Path_890"
   class="st1"
   d="m 349.1,86.7 c 1.6,0 3.1,-1.1 3.5,-2.7 0.1,-0.3 0.1,-0.6 0.1,-0.9 0,-0.3 -0.1,-0.7 -0.2,-1 -3.8,-10.3 -19.3,-21.7 -33.5,-21.4 -0.7,0.1 -1.1,0.7 -1.1,1.4 v 0.1 c 0,0.2 0.1,0.3 0.1,0.4 5,9.6 20.2,21.3 30.3,24 0.2,0.1 0.5,0.1 0.8,0.1 z" />
				<path
   id="Path_891"
   class="st1"
   d="m 330.6,41.6 c 0.4,0.2 0.8,0.3 1.2,0.3 h 0.1 c 0.4,0 0.8,0 1.1,-0.2 1.4,-0.5 2.3,-1.7 2.3,-3.2 -0.1,-1.5 -0.4,-3 -0.9,-4.5 C 331.1,23.7 324.1,16.5 315.2,10.7 313.4,9.5 311,8.2 308.9,7.1 308.7,7 308.4,6.9 308.1,7 308,7 308,7 307.9,7.1 c -0.6,0.2 -1,0.9 -0.8,1.5 5,12.8 11.7,24.8 23.5,33 z" />
				<path
   id="Path_892"
   class="st1"
   d="m 323.3,51 c 1.5,-0.2 2.8,-1.3 3,-2.8 0.1,-0.3 0.1,-0.6 0,-0.9 0,-0.3 -0.1,-0.6 -0.2,-0.9 C 321.6,37 306,27.6 292.6,29.1 c -0.6,0.2 -1,0.8 -0.9,1.4 v 0.1 c 0,0.1 0.1,0.3 0.2,0.4 5.6,8.6 20.9,18.3 30.6,20 0.3,0 0.5,0 0.8,0 z" />
				<path
   id="Path_893"
   class="st1"
   d="m 338.8,97.3 c 0,0.1 0,0.2 0,0.3 v 0.1 c 0,0.1 0,0.2 0.1,0.3 4.1,11 15.2,26.7 25.4,31.5 0.4,0.1 0.7,0.2 1.1,0.2 1.3,0 2.5,-0.6 3.2,-1.8 0.1,-0.2 0.3,-0.5 0.3,-0.8 0.1,-0.3 0.1,-0.6 0.2,-0.9 0,-0.1 0,-0.2 0,-0.4 -2,-12.8 -17.5,-29.3 -29,-29.6 -0.6,0.2 -1.1,0.6 -1.3,1.1 z" />
				<path
   id="Path_894"
   class="st1"
   d="m 373.7,122.6 c 0.4,0.6 0.9,1 1.5,1.3 h 0.1 c 0.4,0.2 0.8,0.2 1.2,0.3 1.2,0.1 2.4,-0.5 3.1,-1.5 1.2,-2 2.1,-4.2 2.6,-6.5 2.5,-11.3 0,-22 -4.9,-32.2 -1,-2.1 -2.3,-4.2 -3.6,-6.5 0,-0.1 -0.1,-0.1 -0.1,-0.2 -0.2,-0.2 -0.5,-0.4 -0.8,-0.4 -0.1,0 -0.2,0 -0.2,0 -0.6,0 -1.2,0.4 -1.4,1 -4.1,12.2 -2.7,33.7 2.4,44.5 0,0 0.1,0.1 0.1,0.2 z" />
				<path
   id="Path_895"
   class="st1"
   d="m 368.5,173.2 c 1.9,0.7 3.9,-0.3 4.6,-2.2 v -0.1 c 2.4,-13.3 -8.8,-33.4 -21.6,-37.2 v 0 c -0.7,0 -1.3,0.6 -1.4,1.3 0.9,10.4 8.1,30 17.3,37.6 0.3,0.2 0.6,0.4 0.9,0.6 z" />
				<path
   id="Path_896"
   class="st1"
   d="m 395,172.8 c -0.1,0 -0.2,0 -0.3,0 -0.3,0.1 -0.6,0.2 -0.9,0.4 -8.7,8.3 -20.5,28.8 -21.9,42.7 0,0.4 0,0.7 0.1,1.1 0.1,0.3 0.2,0.6 0.4,0.9 0.2,0.3 0.3,0.5 0.6,0.8 0.5,0.5 1,0.9 1.7,1.1 0.4,0.2 0.9,0.2 1.4,0.2 0.6,0 1.2,-0.1 1.7,-0.4 1.5,-0.8 2.8,-1.8 4,-3 3.1,-3 5.8,-6.5 7.9,-10.3 5.1,-10 7.5,-21.1 6.9,-32.3 0,-0.1 -0.1,-0.3 -0.2,-0.4 -0.2,-0.4 -0.6,-0.7 -1,-0.8 -0.2,0 -0.3,0 -0.4,0 z" />
				<path
   id="Path_897"
   class="st1"
   d="m 339.1,308.8 c -0.3,-0.4 -0.7,-0.7 -1.1,-0.8 -12.9,-1.3 -36,3.7 -48.3,12.2 -0.2,0.2 -0.4,0.3 -0.6,0.5 -0.8,0.8 -1.3,2 -1.3,3.1 0,0.8 0.2,1.6 0.6,2.2 0.2,0.3 0.4,0.6 0.6,0.9 0.4,0.4 0.9,0.8 1.5,1.1 1.4,0.5 2.9,0.9 4.4,1.1 6.5,1.1 12.8,-0.1 18.9,-2.3 9.4,-3.4 18,-8.7 25.2,-15.6 0.1,-0.1 0.1,-0.2 0.2,-0.3 0.1,-0.1 0.1,-0.2 0.2,-0.3 0.1,-0.2 0.1,-0.4 0.1,-0.5 0,-0.2 0,-0.4 -0.1,-0.6 -0.1,-0.3 -0.2,-0.5 -0.3,-0.7 z" />
				<path
   id="Path_898"
   class="st1"
   d="m 389.9,224.8 c 0,-0.1 -0.1,-0.3 -0.1,-0.4 -0.2,-0.4 -0.6,-0.7 -1.1,-0.8 -0.1,0 -0.2,0 -0.3,-0.1 -0.1,0 -0.2,0 -0.3,0 -0.2,0 -0.4,0.1 -0.5,0.2 -14.1,8.6 -26.5,18.6 -34.2,33.8 -0.1,0.3 -0.2,0.6 -0.3,0.9 0,0.1 0,0.3 0,0.4 0,0.4 0,0.7 0.1,1.1 0.2,0.6 0.5,1.2 0.9,1.7 0.4,0.5 1,0.9 1.7,1.1 0.4,0.1 0.8,0.2 1.2,0.2 3.7,-0.4 7.2,-1.7 10.2,-3.8 12,-8.4 18.9,-20.2 22.8,-33.9 v -0.1 c 0,-0.1 0,-0.1 0,-0.2 -0.1,0 -0.1,-0.1 -0.1,-0.1 z" />
				<path
   id="Path_899"
   class="st1"
   d="m 358.8,217.6 c 0.4,0.5 1,0.9 1.7,1.1 0.4,0.2 0.9,0.2 1.4,0.3 0.7,0 1.4,-0.2 2,-0.5 0.1,-0.1 0.3,-0.2 0.4,-0.3 0.3,-0.2 0.6,-0.5 0.8,-0.8 0.2,-0.2 0.3,-0.5 0.5,-0.7 4.7,-10.8 1.4,-31.3 -11.8,-42.4 -0.1,-0.1 -0.3,-0.2 -0.4,-0.2 -0.1,0 -0.2,0 -0.3,0 -0.1,0 -0.2,0 -0.3,0 -0.5,0.1 -1,0.4 -1.2,0.8 -0.1,0.2 -0.2,0.5 -0.2,0.7 -1.8,12.1 0.4,32.6 7.4,42 z" />
				<path
   id="Path_900"
   class="st1"
   d="m 372.2,269.6 c 0,-0.1 -0.1,-0.3 -0.2,-0.4 -0.2,-0.4 -0.6,-0.7 -1.1,-0.8 -0.1,0 -0.2,0 -0.3,0 -0.1,0 -0.1,0 -0.2,0 -12,0.7 -33.8,12.2 -43.3,22.8 -0.2,0.2 -0.3,0.4 -0.4,0.7 -0.2,0.4 -0.3,0.9 -0.4,1.3 0,0.1 0,0.3 0,0.4 0,0.4 0.1,0.7 0.2,1.1 0.1,0.3 0.2,0.6 0.4,0.9 0.1,0.3 0.3,0.5 0.5,0.8 0.4,0.5 1,0.9 1.6,1.1 0.2,0.1 0.4,0.1 0.7,0.2 1.4,0.2 2.8,0.3 4.3,0.2 13.9,-0.3 31.6,-15.2 38,-27.1 0,-0.1 0.1,-0.2 0.1,-0.2 0,-0.1 0.1,-0.2 0.1,-0.4 V 270 c 0,-0.1 0,-0.1 0,-0.2 0.1,-0.1 0.1,-0.1 0,-0.2 z" />
				<path
   id="Path_901"
   class="st1"
   d="m 339.9,258.6 c 0,0.1 0.1,0.2 0.1,0.2 0.2,0.3 0.3,0.5 0.5,0.8 0.4,0.5 1,0.9 1.6,1.1 0.4,0.2 0.9,0.2 1.4,0.2 0.2,0 0.4,0 0.6,0 0.5,-0.1 0.9,-0.2 1.3,-0.4 0.2,-0.1 0.3,-0.2 0.4,-0.3 0.3,-0.2 0.6,-0.5 0.8,-0.7 0.2,-0.2 0.3,-0.4 0.4,-0.6 1.7,-3 3,-6.2 3.9,-9.6 2.4,-11.5 -0.3,-22.1 -7.1,-31.7 -0.1,-0.1 -0.2,-0.2 -0.3,-0.4 -0.2,-0.3 -0.5,-0.5 -0.9,-0.6 -0.1,0 -0.2,0 -0.3,-0.1 -0.1,0 -0.2,0 -0.3,0 -0.2,0 -0.5,0.1 -0.7,0.2 -0.1,0.1 -0.2,0.1 -0.3,0.2 -0.1,0.1 -0.2,0.2 -0.3,0.4 -0.1,0.1 -0.2,0.3 -0.2,0.4 -0.6,2.4 -1.1,4.5 -1.6,6.6 -1.9,9 -3,18.2 -1.3,27.3 0.7,2.5 1.4,4.8 2.3,7 z" />
				<path
   id="Path_902"
   class="st1"
   d="m 324.6,249.8 c -0.1,0 -0.2,0 -0.3,-0.1 h -0.3 -0.1 c -0.2,0 -0.5,0.1 -0.7,0.2 -0.2,0.1 -0.4,0.3 -0.5,0.5 -7,11 -13,29.8 -10.7,41 0.1,0.2 0.2,0.5 0.3,0.7 0.2,0.3 0.3,0.5 0.6,0.8 0.5,0.5 1,0.9 1.7,1.1 0.3,0.1 0.6,0.2 0.9,0.2 0.1,0 0.3,0 0.4,0 0.2,0 0.4,0 0.6,0 0.5,-0.1 0.9,-0.2 1.3,-0.4 0.1,-0.1 0.2,-0.1 0.3,-0.2 11.8,-10.3 14.2,-30.7 7.4,-43.1 -0.2,-0.3 -0.5,-0.5 -0.9,-0.7 z" />
				<path
   id="Path_903"
   class="st1"
   d="m 298.5,276.2 c -0.1,0 -0.2,0 -0.3,-0.1 -0.1,0 -0.1,0 -0.2,0 h -0.2 c -0.2,0 -0.5,0.1 -0.7,0.2 -0.2,0.1 -0.4,0.3 -0.6,0.5 -9.3,11.4 -18.1,22.8 -19.5,37.7 0,0.8 0.2,1.5 0.6,2.2 0.2,0.3 0.4,0.6 0.6,0.9 0.5,0.6 1.1,1 1.8,1.2 0.4,0.1 0.8,0.2 1.2,0.3 0.1,0 0.2,0 0.3,0 0.7,0 1.4,-0.2 2,-0.5 11.5,-6.9 20.2,-27.7 16.2,-41.2 -0.1,-0.2 -0.1,-0.3 -0.2,-0.5 -0.1,-0.3 -0.5,-0.6 -1,-0.7 z" />
				<path
   id="Path_904"
   class="st1"
   d="m 298,340.9 c -0.1,-0.2 -0.2,-0.4 -0.3,-0.6 -0.2,-0.3 -0.5,-0.5 -0.9,-0.6 -12.1,-4.6 -35.5,-6 -49.5,-1.2 -0.4,0.1 -0.8,0.3 -1.1,0.6 -0.2,0.2 -0.4,0.3 -0.6,0.5 -0.8,0.8 -1.3,2 -1.3,3.1 0,0.8 0.2,1.6 0.6,2.2 0.2,0.3 0.4,0.6 0.6,0.9 0.2,0.2 0.3,0.3 0.5,0.4 1.2,0.8 2.5,1.6 3.9,2.2 6,2.8 12.4,3.3 18.9,2.8 9.9,-0.7 19.6,-3.5 28.4,-8.3 0.1,-0.1 0.2,-0.2 0.3,-0.2 0.2,-0.2 0.3,-0.4 0.4,-0.7 0.1,-0.2 0.1,-0.4 0.1,-0.5 0,-0.1 0,-0.3 0,-0.4 0,-0.1 0,-0.1 0,-0.2 z" />
			</g>
		</g>
		<g
   id="Group_278"
   transform="translate(88.807,64.366)">
			<g
   id="Group_275"
   transform="translate(116.285,89.899)">
				<path
   id="Path_905"
   class="st0"
   d="M 13.6,0 H 9.3 V 9.2 C 9.5,12.2 7.7,15 5,16.1 3.4,16.8 1.7,17.2 0,17.2 v 2.1 2.2 0 3.1 c 2.2,0 4.4,-0.3 6.5,-1.1 v 40.2 h 4.3 v -43 0 c 2,-2.3 3,-5.3 2.8,-8.4 V 0 Z" />
				<rect
   id="Rectangle_80"
   x="18"
   y="3.5"
   class="st0"
   width="25.700001"
   height="7.4000001" />
				<rect
   id="Rectangle_81"
   x="18"
   y="54.299999"
   class="st0"
   width="25.700001"
   height="7.4000001" />
			</g>
			<g
   id="Group_276">
				<rect
   id="Rectangle_82"
   x="63.900002"
   y="124.7"
   class="st0"
   width="4.5"
   height="7.3000002" />
				<rect
   id="Rectangle_83"
   x="63.900002"
   y="110.6"
   class="st0"
   width="4.5"
   height="7.3000002" />
				<rect
   id="Rectangle_84"
   x="93.5"
   y="124.7"
   class="st0"
   width="4.4000001"
   height="7.3000002" />
				<rect
   id="Rectangle_85"
   x="85.800003"
   y="110.6"
   class="st0"
   width="4.4000001"
   height="7.3000002" />
				<rect
   id="Rectangle_86"
   x="71.699997"
   y="124.7"
   class="st0"
   width="4.4000001"
   height="7.3000002" />
				<path
   id="Path_906"
   class="st0"
   d="m 184.2,18 c -1.6,0 -3.3,0.1 -4.9,0.4 -3.7,0.5 -7.4,0.7 -11.1,0.7 -13.7,0 -27.2,-3.3 -39.4,-9.8 -1.8,-1 -3.5,-2 -5.2,-3 -0.8,-0.5 -1.7,-1.1 -2.5,-1.6 -0.7,-0.5 -2.2,-1.5 -2.2,-1.5 -5.8,-4.2 -13.6,-4.2 -19.5,0 0,0 -1.4,1 -2.1,1.5 -0.8,0.5 -1.7,1.1 -2.5,1.6 -1.7,1.1 -3.4,2.1 -5.2,3 C 77.5,15.8 64,19.1 50.2,19.1 46.5,19.1 42.8,18.9 39.1,18.4 20.5,15.7 3.1,28.7 0.4,47.4 0.2,49 0,50.7 0.1,52.3 v 70.6 c 0,1.3 -0.1,2.7 -0.1,4 0,62.3 43.9,116 104.9,128.4 1.4,0.2 2.9,0.3 4.3,0.3 1.4,0 2.8,-0.1 4.2,-0.3 60.8,-12.3 104.7,-65.6 105.1,-127.7 v -0.4 -75 C 218.6,33.4 203.2,18 184.2,18 Z m -83,71.9 V 100 h -7.7 v 3.9 h 7.7 V 154 h -3.3 v -15.1 h -4.4 v 15.3 H 90.2 V 138.9 H 85.8 V 154 h -3.3 v -50.1 h 7.7 V 100 h -7.7 v -6.8 h 7.7 v -3.3 h 3.3 v 3.3 h 4.4 V 89.9 Z M 86.1,49.3 v 0 l 3.1,-6.2 3,6.1 v 0.1 l 6.8,1 -4.7,4.7 v 0 l 1.2,6.8 -6.1,-3.2 -6.1,3.2 1.1,-6.7 V 55 L 79.5,50.2 Z M 54.6,69 v 0 l 3.1,-6.2 3,6.1 V 69 l 6.8,1 -4.9,4.8 -0.1,0.1 1.2,6.8 -6.1,-3.2 -6.1,3.2 1.2,-6.8 V 74.8 L 47.8,70 Z m -18.8,32.7 v 0 l 3.1,-6.2 3,6.1 v 0 l 6.9,1 -4.9,4.7 v 0.1 l 1.2,6.8 -6,-3.2 H 39 l -6.1,3.2 1.2,-6.7 v -0.1 l -4.9,-4.8 z m 4.1,47.2 v 0 l -6.2,3.2 1.1,-6.7 v -0.1 l -4.9,-4.8 6.7,-1 h 0.1 l 3.1,-6.2 3,6.1 v 0.1 l 6.8,1 -4.9,4.8 -0.1,0.1 1.4,6.6 z m 25.8,34.8 -6,-3.2 h -0.1 l -6.1,3.2 1.2,-6.7 v -0.1 l -5,-4.8 6.8,-1 h 0.1 l 3.1,-6.2 3,6.1 v 0.1 l 6.8,1 -4.9,4.8 H 64.5 Z M 79.4,99.9 h -7.7 v 3.9 h 7.7 v 35 h -7.7 v 3.9 h 7.7 v 6.8 h -7.7 v 4.6 h -3.3 v -4.6 h -7.8 v -6.8 h 7.8 v -3.9 h -7.8 v -35 h 7.8 v -3.9 h -7.8 v -6.8 h 7.8 v -3.3 h 3.3 v 3.3 h 7.7 z m 18.3,102.6 -6.1,-3.2 -6.1,3.2 1.1,-6.7 v -0.1 l -4.9,-4.8 6.8,-1 h 0.1 l 3,-6.2 3,6.1 v 0.1 l 6.8,1 -4.9,4.8 -0.1,0.1 z M 210.9,127 c 0,58 -40.8,107.9 -97.7,119.5 -1.3,0.2 -2.6,0.3 -3.9,0.3 V 9.1 c 3.3,0.1 6.5,1.3 9.1,3.3 v 0 c 0.7,0.5 1.3,1 2,1.4 0.8,0.5 1.5,1 2.3,1.5 1.6,1 3.2,1.9 4.8,2.8 10.9,5.8 24.8,8.8 38,8.8 3.6,-0.1 7.1,-0.4 10.6,-0.9 1.9,-0.2 3.9,-0.3 5.8,-0.3 17.2,0 28.7,13.2 29.3,30.3 v 0 c 0.2,-0.2 -0.3,70.4 -0.3,71 z" />
				<rect
   id="Rectangle_87"
   x="85.800003"
   y="124.7"
   class="st0"
   width="4.4000001"
   height="7.3000002" />
				<rect
   id="Rectangle_88"
   x="93.5"
   y="110.6"
   class="st0"
   width="4.4000001"
   height="7.3000002" />
				<rect
   id="Rectangle_89"
   x="71.699997"
   y="110.6"
   class="st0"
   width="4.4000001"
   height="7.3000002" />
			</g>
			<g
   id="Group_277"
   transform="translate(117.373,43.392)">
				<path
   id="Path_907"
   class="st0"
   d="M 19.1,6.9 12.5,5.9 12.4,5.8 9.6,0 6.6,6 0,6.9 l 4.8,4.7 -1.1,6.6 5.9,-3.1 5.9,3.1 -1.1,-6.6 z" />
				<path
   id="Path_908"
   class="st0"
   d="m 47.4,30 4.7,-4.6 -6.6,-1 -2.9,-6 -3,6 -6.6,1 4.8,4.7 v 0.1 l -1.1,6.4 5.9,-3.1 5.9,3.1 z" />
				<path
   id="Path_909"
   class="st0"
   d="m 66.2,61 4.7,-4.6 -6.6,-1 -0.1,-0.1 -2.9,-5.8 -3,6 -6.6,1 4.8,4.7 -1.1,6.6 5.9,-3.1 5.9,3.1 -1.1,-6.6 z" />
				<path
   id="Path_910"
   class="st0"
   d="m 71.8,94 -6.6,-1 h -0.1 l -2.9,-5.9 -3,6 -6.6,1 4.8,4.7 -1.1,6.6 5.9,-3.1 5.9,3.1 -1.1,-6.7 z" />
				<path
   id="Path_911"
   class="st0"
   d="m 54,127 -6.6,-1 -0.1,-0.1 -2.9,-5.9 -3,6 -6.6,1 4.8,4.7 -1.1,6.6 5.9,-3.1 5.9,3.1 -1.1,-6.6 z" />
				<path
   id="Path_912"
   class="st0"
   d="m 17.6,151.3 4.7,-4.6 -6.6,-0.9 -2.9,-6 -3,6 H 9.7 l -6.4,0.9 4.8,4.7 v 0.2 l -1.3,6.4 5.9,-3.1 5.9,3.1 z" />
			</g>
		</g>
	</g>
</g>
</svg>
